<svg xmlns="http://www.w3.org/2000/svg" xmlns:xlink="http://www.w3.org/1999/xlink" viewBox="0 0 875 875"><defs><style>.cls-1{fill:#fff;}.cls-2{fill:url(#radial-gradient);}</style><radialGradient id="radial-gradient" cx="437.89" cy="437.01" r="161.97" gradientUnits="userSpaceOnUse"><stop offset="0" stop-color="#600"/><stop offset="1" stop-color="#cd0000"/></radialGradient></defs><g id="White_BG_Outline" data-name="White BG + Outline"><circle class="cls-1" cx="437.5" cy="437.5" r="430.26" transform="translate(-181.22 437.5) rotate(-45)"/></g><g id="S"><path class="cls-2" d="M308.73,529.48V517.74q0-12.33,12.32-12.33H371q12.33,0,12.33,12.33v4.7q0,22.32,8.81,30.53t32.29,8.22H452q22.9,0,32-8.81t9.1-32.88v-7q0-17-13.8-26.13t-34.34-10.86a369.49,369.49,0,0,1-44.33-6.76,286.48,286.48,0,0,1-44.33-12.91q-20.55-7.94-34.34-31.12t-13.8-59.59V344.54q0-45.8,25.83-71t71.63-25.25h58.71q46.38,0,72.22,25.25t25.83,71v11.15Q562.36,368,550,368h-49.9q-12.33,0-12.33-12.33v-3.52q0-22.89-8.81-31.12t-32.29-8.22H423.8q-24.07,0-32.58,9.1t-8.52,35.53v11.15q0,27.6,48.15,31.71,49.89,4.11,88.65,20,20.55,8.81,34.35,31.41t13.8,57.83v20q0,45.79-25.84,71t-71.63,25.25h-64q-45.79,0-71.63-25.25T308.73,529.48Z"/></g><g id="Aperature"><path d="M437.5,0C195.88,0,0,195.88,0,437.5S195.88,875,437.5,875,875,679.13,875,437.5,679.12,0,437.5,0Zm0,31.27A402.7,402.7,0,0,1,679.21,111V263.75L311.24,51.3A405.44,405.44,0,0,1,437.5,31.27ZM652.61,437.5c0,118.61-96.5,215.11-215.11,215.11S222.39,556.11,222.39,437.5s96.5-215.11,215.11-215.11S652.61,318.89,652.61,437.5ZM275.51,64.88l132.37,76.43L40.06,353.67C67,224.84,154.17,117.68,275.51,64.88ZM166.18,739.74A404.59,404.59,0,0,1,34,391.38l132.2-76.33Zm271.32,104A402.65,402.65,0,0,1,195.8,764V611.25l368,212.45A405.26,405.26,0,0,1,437.5,843.73Zm162-33.61L467.12,733.7,834.94,521.33C808,650.17,720.82,757.32,599.49,810.12ZM708.82,559.94V135.27A404.57,404.57,0,0,1,841,483.62Z"/></g></svg>