<svg xmlns="http://www.w3.org/2000/svg" xmlns:xlink="http://www.w3.org/1999/xlink" viewBox="0 0 875 875"><defs><style>.cls-1{fill:#fff;}.cls-2{fill:url(#radial-gradient);}</style><radialGradient id="radial-gradient" cx="500.46" cy="464.43" r="179.02" gradientUnits="userSpaceOnUse"><stop offset="0" stop-color="#600080"/><stop offset="1" stop-color="#90c"/></radialGradient></defs><g id="White_BG_Outline" data-name="White BG + Outline"><circle class="cls-1" cx="437.5" cy="437.5" r="411.19" transform="translate(-181.22 437.5) rotate(-45)"/></g><g id="S"><path class="cls-2" d="M330,514.27v-9.8q0-10.29,10.29-10.29H382q10.29,0,10.29,10.29v3.92q0,18.63,7.35,25.48t26.95,6.86h23q19.11,0,26.7-7.35t7.6-27.44v-5.88q0-14.21-11.52-21.81t-28.66-9.06a309.06,309.06,0,0,1-37-5.64,238.36,238.36,0,0,1-37-10.78q-17.16-6.61-28.67-26t-11.52-49.73V359.92q0-38.24,21.57-59.3t59.78-21.07h49q38.7,0,60.27,21.07t21.56,59.3v9.31q0,10.29-10.29,10.29H489.77q-10.29,0-10.29-10.29v-2.94q0-19.11-7.35-26t-26.95-6.87H426.07q-20.1,0-27.2,7.6t-7.1,29.65V380q0,23,40.18,26.46,41.64,3.43,74,16.66,17.15,7.35,28.66,26.21t11.52,48.27v16.66q0,38.22-21.56,59.29t-59.78,21.07H411.37q-38.22,0-59.78-21.07T330,514.27Z"/></g><g id="Aperature"><path d="M437.5,0C195.88,0,0,195.88,0,437.5S195.88,875,437.5,875,875,679.13,875,437.5,679.12,0,437.5,0Zm0,31.27A402.7,402.7,0,0,1,679.21,111V263.75L311.24,51.3A405.44,405.44,0,0,1,437.5,31.27ZM652.61,437.5c0,118.61-96.5,215.11-215.11,215.11S222.39,556.11,222.39,437.5s96.5-215.11,215.11-215.11S652.61,318.89,652.61,437.5ZM275.51,64.88l132.37,76.43L40.06,353.67C67,224.84,154.17,117.68,275.51,64.88ZM166.18,739.74A404.59,404.59,0,0,1,34,391.38l132.2-76.33Zm271.32,104A402.65,402.65,0,0,1,195.8,764V611.25l368,212.45A405.26,405.26,0,0,1,437.5,843.73Zm162-33.61L467.12,733.7,834.94,521.33C808,650.17,720.82,757.32,599.49,810.12ZM708.82,559.94V135.27A404.57,404.57,0,0,1,841,483.62Z"/></g></svg>